<svg width="43" height="16" viewBox="0 0 43 16" fill="none" xmlns="http://www.w3.org/2000/svg">
<path d="M17.0162 2.20486L14.9834 14.1345H18.2346L20.2691 2.20486H17.0162Z" fill="white"/>
<path d="M12.2573 2.21825L9.07292 10.3539L8.73341 9.12547C8.1054 7.64536 6.32257 5.51967 4.2295 4.18004L7.14124 14.1286L10.5815 14.1228L15.7017 2.21574L12.2573 2.21825Z" fill="white"/>
<path d="M7.49914 3.07203C7.31016 2.34535 6.76243 2.12877 6.08258 2.10284H1.04181L1 2.34033C4.92273 3.29196 7.51838 5.58489 8.59543 8.34192L7.49914 3.07203Z" fill="white"/>
<path d="M26.8586 4.49195C27.9223 4.47523 28.6933 4.7077 29.292 4.94853L29.5855 5.08651L30.0254 2.5009C29.3815 2.25923 28.3722 2 27.1128 2C23.9 2 21.6355 3.61809 21.618 5.93695C21.5971 7.65037 23.231 8.60702 24.4653 9.17816C25.7322 9.76352 26.157 10.1356 26.1511 10.6583C26.1411 11.4569 25.141 11.8231 24.2069 11.8231C22.9049 11.8231 22.2134 11.6434 21.1455 11.1985L20.7266 11.0078L20.2691 13.6779C21.0301 14.0115 22.4341 14.2984 23.8917 14.3134C27.3093 14.3134 29.5303 12.7146 29.5537 10.2368C29.568 8.8813 28.7008 7.84689 26.8218 6.99812C25.6845 6.44454 24.9888 6.0766 24.9955 5.518C24.9955 5.02212 25.5859 4.49195 26.8586 4.49195Z" fill="white"/>
<path d="M38.3692 2.21825H35.8572C35.077 2.21825 34.4967 2.43065 34.1538 3.20834L29.3263 14.1411H32.7406C32.7406 14.1411 33.2975 12.6711 33.4238 12.3491C33.7976 12.3491 37.1149 12.3541 37.5874 12.3541C37.6844 12.7706 37.9837 14.1411 37.9837 14.1411H41L38.3692 2.21825ZM34.3595 9.90734C34.6271 9.22247 35.6548 6.57331 35.6548 6.57331C35.6373 6.60592 35.9199 5.88342 36.088 5.43437L36.3071 6.46293C36.3071 6.46293 36.9301 9.31111 37.0605 9.90734H34.3595Z" fill="white"/>
</svg>
